<mxfile host="65bd71144e">
    <diagram id="ki9XD8vHC40PJyxWGw-b" name="Page-1">
        <mxGraphModel dx="1038" dy="774" grid="1" gridSize="10" guides="1" tooltips="1" connect="1" arrows="1" fold="1" page="1" pageScale="1" pageWidth="850" pageHeight="1100" math="0" shadow="0">
            <root>
                <mxCell id="0"/>
                <mxCell id="1" parent="0"/>
                <mxCell id="52" value="" style="group" vertex="1" connectable="0" parent="1">
                    <mxGeometry x="58" y="940" width="735" height="290" as="geometry"/>
                </mxCell>
                <mxCell id="25" style="edgeStyle=none;html=1;fontSize=16;" parent="52" source="26" edge="1">
                    <mxGeometry relative="1" as="geometry">
                        <mxPoint x="305" y="200" as="targetPoint"/>
                    </mxGeometry>
                </mxCell>
                <mxCell id="26" value="Actor" style="shape=umlActor;verticalLabelPosition=bottom;verticalAlign=top;html=1;outlineConnect=0;" parent="52" vertex="1">
                    <mxGeometry x="145" y="170" width="30" height="60" as="geometry"/>
                </mxCell>
                <mxCell id="44" style="edgeStyle=none;html=1;fontSize=15;fontColor=#FFFFFF;" parent="52" source="28" edge="1">
                    <mxGeometry relative="1" as="geometry">
                        <mxPoint x="385" y="140" as="targetPoint"/>
                    </mxGeometry>
                </mxCell>
                <mxCell id="28" value="Form" style="rounded=0;whiteSpace=wrap;html=1;fontSize=16;" parent="52" vertex="1">
                    <mxGeometry x="325" y="170" width="120" height="60" as="geometry"/>
                </mxCell>
                <mxCell id="29" style="edgeStyle=none;html=1;fontSize=16;" parent="52" edge="1">
                    <mxGeometry relative="1" as="geometry">
                        <mxPoint x="595" y="199.5" as="targetPoint"/>
                        <mxPoint x="465" y="199.5" as="sourcePoint"/>
                    </mxGeometry>
                </mxCell>
                <mxCell id="30" value="Server" style="rounded=0;whiteSpace=wrap;html=1;fontSize=16;" parent="52" vertex="1">
                    <mxGeometry x="615" y="170" width="120" height="60" as="geometry"/>
                </mxCell>
                <mxCell id="31" value="Request for pieces of furniture having letters &lt;b&gt;&lt;font style=&quot;font-size: 21px&quot;&gt;Bed&lt;/font&gt;&lt;/b&gt;" style="text;html=1;strokeColor=none;fillColor=none;align=center;verticalAlign=middle;whiteSpace=wrap;rounded=0;" parent="52" vertex="1">
                    <mxGeometry x="465" y="160" width="140" height="30" as="geometry"/>
                </mxCell>
                <mxCell id="42" value="" style="endArrow=none;dashed=1;html=1;fontSize=15;fontColor=#FFFFFF;exitX=0.778;exitY=0.91;exitDx=0;exitDy=0;exitPerimeter=0;entryX=0.25;entryY=0.1;entryDx=0;entryDy=0;entryPerimeter=0;" parent="52" edge="1">
                    <mxGeometry width="50" height="50" relative="1" as="geometry">
                        <mxPoint x="93.3599999999999" y="156.79999999999995" as="sourcePoint"/>
                        <mxPoint x="147.5" y="170" as="targetPoint"/>
                    </mxGeometry>
                </mxCell>
                <mxCell id="45" value="writing &lt;b&gt;&lt;font style=&quot;font-size: 20px&quot;&gt;b&lt;/font&gt;&lt;font style=&quot;font-size: 15px&quot;&gt; &lt;/font&gt;&lt;/b&gt;letter" style="text;html=1;strokeColor=none;fillColor=none;align=center;verticalAlign=middle;whiteSpace=wrap;rounded=0;" parent="52" vertex="1">
                    <mxGeometry x="185" y="110" width="140" height="30" as="geometry"/>
                </mxCell>
                <mxCell id="46" value="writing &lt;b&gt;&lt;font style=&quot;font-size: 20px&quot;&gt;e&lt;/font&gt;&lt;font style=&quot;font-size: 15px&quot;&gt;&amp;nbsp;&lt;/font&gt;&lt;/b&gt;letter" style="text;html=1;strokeColor=none;fillColor=none;align=center;verticalAlign=middle;whiteSpace=wrap;rounded=0;" parent="52" vertex="1">
                    <mxGeometry x="185" y="150" width="140" height="30" as="geometry"/>
                </mxCell>
                <mxCell id="47" value="writing &lt;b&gt;&lt;font style=&quot;font-size: 20px&quot;&gt;d&lt;/font&gt;&lt;font style=&quot;font-size: 15px&quot;&gt;&amp;nbsp;&lt;/font&gt;&lt;/b&gt;letter" style="text;html=1;strokeColor=none;fillColor=none;align=center;verticalAlign=middle;whiteSpace=wrap;rounded=0;" parent="52" vertex="1">
                    <mxGeometry x="185" y="220" width="140" height="30" as="geometry"/>
                </mxCell>
                <mxCell id="48" value="&amp;nbsp;I will wait for 500 ms&lt;br&gt;to make sure that this is really what you want" style="text;html=1;strokeColor=none;fillColor=none;align=center;verticalAlign=middle;whiteSpace=wrap;rounded=0;" parent="52" vertex="1">
                    <mxGeometry x="315" y="90" width="140" height="30" as="geometry"/>
                </mxCell>
                <mxCell id="50" value="I've already waited for 500ms and no changes" style="text;html=1;strokeColor=none;fillColor=none;align=center;verticalAlign=middle;whiteSpace=wrap;rounded=0;" parent="52" vertex="1">
                    <mxGeometry x="323.75" y="260" width="140" height="30" as="geometry"/>
                </mxCell>
                <mxCell id="53" value="Intend to search for&amp;nbsp;&lt;b&gt;&lt;font style=&quot;font-size: 19px&quot;&gt;BED&lt;/font&gt;&lt;/b&gt;" style="ellipse;whiteSpace=wrap;html=1;fontSize=15;fontColor=#FFFFFF;fillColor=none;" vertex="1" parent="1">
                    <mxGeometry x="40" y="1000" width="140" height="100" as="geometry"/>
                </mxCell>
            </root>
        </mxGraphModel>
    </diagram>
</mxfile>